<svg width="960" height="960" viewBox="0 0 960 960" fill="none" xmlns="http://www.w3.org/2000/svg">
<path d="M824.525 468.72C824.525 468.72 823.68 463.532 823.185 463.579L729.053 472.662C721.563 473.385 715.746 479.358 715.22 486.864L712.634 523.929L639.809 529.125L634.856 495.533C633.753 488.061 627.228 482.428 619.675 482.428H520.324C512.774 482.428 506.25 488.061 505.146 495.533L500.19 529.125L427.365 523.929L424.779 486.864C424.254 479.356 418.437 473.382 410.947 472.659L316.767 463.579C316.281 463.532 315.925 468.725 315.438 468.725L315.311 489.096L395.071 501.959L397.683 539.354C398.212 546.925 404.32 553.047 411.896 553.591L512.192 560.745C512.571 560.771 512.946 560.787 513.321 560.787C520.858 560.787 527.372 555.151 528.475 547.68L533.572 513.114H606.431L611.527 547.68C612.628 555.149 619.15 560.784 626.697 560.784C627.067 560.784 627.436 560.771 627.798 560.745L728.106 553.591C735.68 553.047 741.791 546.925 742.319 539.354L744.928 501.959L824.655 489.039L824.525 468.72Z" fill="white"/>
<path d="M315.437 315.117V438.731V454.432V468.72C315.718 468.723 315.999 468.733 316.277 468.759L410.446 477.839C415.379 478.315 419.245 482.285 419.588 487.228L422.491 528.797L504.635 534.658L510.294 496.292C511.028 491.318 515.294 487.631 520.326 487.631H619.677C624.706 487.631 628.972 491.318 629.706 496.292L635.365 534.658L717.511 528.797L720.412 487.228C720.758 482.285 724.621 478.317 729.554 477.839L823.686 468.759C823.965 468.733 824.243 468.723 824.524 468.72V456.464L824.563 456.451V315.117H824.912C837.387 299.195 848.93 282.417 860 264.518C845.298 239.49 827.284 217.124 808.03 196.402C790.172 205.391 772.827 215.573 756.445 226.409C748.247 218.261 739.014 211.596 729.944 204.628C721.034 197.471 710.992 192.224 701.467 186.11C704.303 164.992 705.705 144.203 706.27 122.505C681.695 110.137 655.488 101.937 628.98 96.0466C618.397 113.834 608.719 133.096 600.29 151.927C590.294 150.257 580.252 149.638 570.196 149.518V149.502C570.126 149.502 570.061 149.518 570.001 149.518C569.939 149.518 569.874 149.502 569.811 149.502V149.518C559.738 149.638 549.703 150.257 539.705 151.927C531.281 133.096 521.608 113.834 511.009 96.0466C484.514 101.937 458.305 110.137 433.733 122.505C434.295 144.203 435.697 164.992 438.541 186.11C428.998 192.224 418.969 197.471 410.056 204.628C400.999 211.596 391.751 218.261 383.55 226.409C367.168 215.573 349.828 205.391 331.965 196.402C312.71 217.124 294.707 239.49 280 264.518C291.065 282.417 302.616 299.195 315.088 315.117H315.437Z" fill="#478CBF"/>
<path d="M740.045 497.202L737.128 538.992C736.777 544.029 732.771 548.038 727.734 548.4L627.428 555.557C627.183 555.575 626.939 555.583 626.697 555.583C621.712 555.583 617.412 551.925 616.675 546.919L610.923 507.91H529.078L523.326 546.919C522.554 552.169 517.86 555.944 512.574 555.557L412.268 548.4C407.231 548.038 403.224 544.029 402.873 538.992L399.957 497.202L315.281 489.038C315.321 498.139 315.438 508.108 315.438 510.093C315.438 599.522 428.882 642.506 569.828 643H569.999H570.174C711.12 642.506 824.525 599.522 824.525 510.093C824.525 508.072 824.647 498.144 824.689 489.038L740.045 497.202Z" fill="#478CBF"/>
<path d="M493.259 377.47C493.259 408.824 467.854 434.224 436.51 434.224C405.181 434.224 379.768 408.824 379.768 377.47C379.768 346.136 405.181 320.749 436.51 320.749C467.854 320.749 493.259 346.136 493.259 377.47Z" fill="white"/>
<path d="M479.604 380.836C479.604 401.633 462.748 418.489 441.935 418.489C421.132 418.489 404.266 401.633 404.266 380.836C404.266 360.038 421.132 343.167 441.935 343.167C462.748 343.167 479.604 360.038 479.604 380.836Z" fill="#414042"/>
<path d="M569.996 439.387C559.907 439.387 551.73 431.952 551.73 422.786V370.543C551.73 361.385 559.907 353.942 569.996 353.942C580.085 353.942 588.28 361.385 588.28 370.543V422.786C588.28 431.952 580.085 439.387 569.996 439.387Z" fill="white"/>
<path d="M646.742 377.47C646.742 408.824 672.147 434.224 703.497 434.224C734.823 434.224 760.233 408.824 760.233 377.47C760.233 346.136 734.823 320.749 703.497 320.749C672.147 320.749 646.742 346.136 646.742 377.47Z" fill="white"/>
<path d="M660.4 380.836C660.4 401.633 677.251 418.489 698.049 418.489C718.867 418.489 735.718 401.633 735.718 380.836C735.718 360.038 718.867 343.167 698.049 343.167C677.251 343.167 660.4 360.038 660.4 380.836Z" fill="#414042"/>
<path d="M100 736C100 720.241 103.104 704.637 109.134 690.078C115.165 675.519 124.004 662.29 135.147 651.147L177.574 693.574C172.002 699.145 167.583 705.759 164.567 713.039C161.552 720.319 160 728.121 160 736L100 736Z" fill="#FF7084"/>
<path d="M135.147 651.147C146.29 640.004 159.519 631.165 174.078 625.134C188.637 619.104 204.241 616 220 616L220 676C212.121 676 204.319 677.552 197.039 680.567C189.759 683.583 183.145 688.002 177.574 693.574L135.147 651.147Z" fill="#FFECA0"/>
<path d="M220 616C235.759 616 251.363 619.104 265.922 625.134C280.481 631.165 293.71 640.004 304.853 651.147L262.426 693.574C256.855 688.002 250.241 683.583 242.961 680.567C235.681 677.552 227.879 676 220 676L220 616Z" fill="#A0FFE0"/>
<path d="M304.853 651.147C315.996 662.29 324.835 675.519 330.866 690.078C336.896 704.637 340 720.241 340 736L280 736C280 728.121 278.448 720.319 275.433 713.039C272.417 705.759 267.998 699.145 262.426 693.574L304.853 651.147Z" fill="#42FFC2"/>
<path d="M340 736C340 767.826 327.357 798.348 304.853 820.853L262.426 778.426C273.679 767.174 280 751.913 280 736H340Z" fill="#66E5FF"/>
<path d="M304.853 820.853C293.71 831.996 280.481 840.835 265.922 846.866C251.363 852.896 235.759 856 220 856L220 796C227.879 796 235.681 794.448 242.961 791.433C250.241 788.417 256.855 783.998 262.426 778.426L304.853 820.853Z" fill="#57B2FF"/>
<path d="M220 856C188.174 856 157.652 843.357 135.147 820.853L177.574 778.426C188.826 789.679 204.087 796 220 796L220 856Z" fill="#ABC8FF"/>
<path d="M135.147 820.853C112.643 798.348 100 767.826 100 736L160 736C160 751.913 166.321 767.174 177.574 778.426L135.147 820.853Z" fill="#CCCED3"/>
</svg>
