<svg width="960" height="960" viewBox="0 0 960 960" fill="none" xmlns="http://www.w3.org/2000/svg">
<path d="M644.525 472.72C644.525 472.72 643.68 467.532 643.185 467.579L549.053 476.662C541.563 477.385 535.746 483.358 535.22 490.864L532.634 527.929L459.809 533.125L454.856 499.533C453.753 492.061 447.228 486.428 439.675 486.428H340.324C332.774 486.428 326.25 492.061 325.146 499.533L320.19 533.125L247.365 527.929L244.779 490.864C244.254 483.356 238.437 477.382 230.947 476.659L136.767 467.579C136.281 467.532 135.925 472.725 135.438 472.725L135.311 493.096L215.071 505.959L217.683 543.354C218.212 550.925 224.32 557.047 231.896 557.591L332.192 564.745C332.571 564.771 332.946 564.787 333.321 564.787C340.858 564.787 347.372 559.151 348.475 551.68L353.572 517.114H426.431L431.527 551.68C432.628 559.149 439.15 564.784 446.697 564.784C447.067 564.784 447.436 564.771 447.798 564.745L548.106 557.591C555.68 557.047 561.791 550.925 562.319 543.354L564.928 505.959L644.655 493.039L644.525 472.72Z" fill="white"/>
<path d="M135.437 319.117V442.731V458.432V472.72C135.718 472.723 135.999 472.733 136.277 472.759L230.446 481.839C235.379 482.315 239.245 486.285 239.588 491.228L242.491 532.797L324.635 538.658L330.294 500.292C331.028 495.318 335.294 491.631 340.326 491.631H439.677C444.706 491.631 448.972 495.318 449.706 500.292L455.365 538.658L537.511 532.797L540.412 491.228C540.758 486.285 544.621 482.317 549.554 481.839L643.686 472.759C643.965 472.733 644.243 472.723 644.524 472.72V460.464L644.563 460.451V319.117H644.912C657.387 303.195 668.93 286.417 680 268.518C665.298 243.49 647.284 221.124 628.03 200.402C610.172 209.391 592.827 219.573 576.445 230.409C568.247 222.261 559.014 215.596 549.944 208.628C541.034 201.471 530.992 196.224 521.467 190.11C524.303 168.992 525.705 148.203 526.27 126.505C501.695 114.137 475.488 105.937 448.98 100.047C438.397 117.834 428.719 137.096 420.29 155.927C410.294 154.257 400.252 153.638 390.196 153.518V153.502C390.126 153.502 390.061 153.518 390.001 153.518C389.939 153.518 389.874 153.502 389.811 153.502V153.518C379.738 153.638 369.703 154.257 359.705 155.927C351.281 137.096 341.608 117.834 331.009 100.047C304.514 105.937 278.305 114.137 253.733 126.505C254.295 148.203 255.697 168.992 258.541 190.11C248.998 196.224 238.969 201.471 230.056 208.628C220.999 215.596 211.751 222.261 203.55 230.409C187.168 219.573 169.828 209.391 151.965 200.402C132.71 221.124 114.707 243.49 100 268.518C111.065 286.417 122.616 303.195 135.088 319.117H135.437Z" fill="#478CBF"/>
<path d="M560.044 501.202L557.128 542.992C556.777 548.029 552.77 552.038 547.734 552.4L447.428 559.557C447.183 559.575 446.939 559.583 446.697 559.583C441.712 559.583 437.411 555.925 436.675 550.919L430.923 511.91H349.078L343.326 550.919C342.553 556.169 337.86 559.944 332.573 559.557L232.268 552.4C227.231 552.038 223.224 548.029 222.873 542.992L219.957 501.202L135.281 493.038C135.32 502.139 135.437 512.108 135.437 514.093C135.437 603.522 248.882 646.506 389.828 647H389.999H390.174C531.12 646.506 644.525 603.522 644.525 514.093C644.525 512.072 644.647 502.144 644.689 493.038L560.044 501.202Z" fill="#478CBF"/>
<path d="M313.259 381.47C313.259 412.824 287.854 438.224 256.51 438.224C225.181 438.224 199.768 412.824 199.768 381.47C199.768 350.136 225.181 324.749 256.51 324.749C287.854 324.749 313.259 350.136 313.259 381.47Z" fill="white"/>
<path d="M299.604 384.836C299.604 405.633 282.748 422.489 261.935 422.489C241.132 422.489 224.266 405.633 224.266 384.836C224.266 364.038 241.132 347.167 261.935 347.167C282.748 347.167 299.604 364.038 299.604 384.836Z" fill="#414042"/>
<path d="M389.996 443.387C379.907 443.387 371.73 435.952 371.73 426.786V374.543C371.73 365.385 379.907 357.942 389.996 357.942C400.085 357.942 408.28 365.385 408.28 374.543V426.786C408.28 435.952 400.085 443.387 389.996 443.387Z" fill="white"/>
<path d="M466.742 381.47C466.742 412.824 492.147 438.224 523.496 438.224C554.823 438.224 580.233 412.824 580.233 381.47C580.233 350.136 554.823 324.749 523.496 324.749C492.147 324.749 466.742 350.136 466.742 381.47Z" fill="white"/>
<path d="M480.4 384.836C480.4 405.633 497.251 422.489 518.049 422.489C538.867 422.489 555.718 405.633 555.718 384.836C555.718 364.038 538.867 347.167 518.049 347.167C497.251 347.167 480.4 364.038 480.4 384.836Z" fill="#414042"/>
<path d="M620 740C620 724.241 623.104 708.637 629.134 694.078C635.165 679.519 644.004 666.29 655.147 655.147L697.574 697.574C692.002 703.145 687.583 709.759 684.567 717.039C681.552 724.319 680 732.121 680 740L620 740Z" fill="#FF7084"/>
<path d="M655.147 655.147C666.29 644.004 679.519 635.165 694.078 629.134C708.637 623.104 724.241 620 740 620L740 680C732.121 680 724.319 681.552 717.039 684.567C709.759 687.583 703.145 692.002 697.574 697.574L655.147 655.147Z" fill="#FFECA0"/>
<path d="M740 620C755.759 620 771.363 623.104 785.922 629.134C800.481 635.165 813.71 644.004 824.853 655.147L782.426 697.574C776.855 692.002 770.241 687.583 762.961 684.567C755.681 681.552 747.879 680 740 680L740 620Z" fill="#A0FFE0"/>
<path d="M824.853 655.147C835.996 666.29 844.835 679.519 850.866 694.078C856.896 708.637 860 724.241 860 740L800 740C800 732.121 798.448 724.319 795.433 717.039C792.417 709.759 787.998 703.145 782.426 697.574L824.853 655.147Z" fill="#42FFC2"/>
<path d="M860 740C860 771.826 847.357 802.348 824.853 824.853L782.426 782.426C793.679 771.174 800 755.913 800 740H860Z" fill="#66E5FF"/>
<path d="M824.853 824.853C813.71 835.996 800.481 844.835 785.922 850.866C771.363 856.896 755.759 860 740 860L740 800C747.879 800 755.681 798.448 762.961 795.433C770.241 792.417 776.855 787.998 782.426 782.426L824.853 824.853Z" fill="#57B2FF"/>
<path d="M740 860C708.174 860 677.652 847.357 655.147 824.853L697.574 782.426C708.826 793.679 724.087 800 740 800L740 860Z" fill="#ABC8FF"/>
<path d="M655.147 824.853C632.643 802.348 620 771.826 620 740L680 740C680 755.913 686.321 771.174 697.574 782.426L655.147 824.853Z" fill="#CCCED3"/>
</svg>
